<svg xmlns="http://www.w3.org/2000/svg" viewBox="0 0 1024 1024" role="img" aria-label="Artisan app icon">
  <defs>
    <linearGradient id="base" x1="196" y1="132" x2="828" y2="892" gradientUnits="userSpaceOnUse">
      <stop offset="0" stop-color="#26343f"/>
      <stop offset="0.48" stop-color="#17232c"/>
      <stop offset="1" stop-color="#0d151b"/>
    </linearGradient>
    <radialGradient id="glow" cx="340" cy="220" r="680" gradientUnits="userSpaceOnUse">
      <stop offset="0" stop-color="#2bc6b4" stop-opacity="0.36"/>
      <stop offset="0.48" stop-color="#2bc6b4" stop-opacity="0.08"/>
      <stop offset="1" stop-color="#2bc6b4" stop-opacity="0"/>
    </radialGradient>
    <linearGradient id="paper" x1="350" y1="220" x2="660" y2="750" gradientUnits="userSpaceOnUse">
      <stop offset="0" stop-color="#fffdf4"/>
      <stop offset="1" stop-color="#dfe7e5"/>
    </linearGradient>
    <linearGradient id="fold" x1="621" y1="227" x2="721" y2="335" gradientUnits="userSpaceOnUse">
      <stop offset="0" stop-color="#f8fbf5"/>
      <stop offset="1" stop-color="#b9c9c7"/>
    </linearGradient>
    <linearGradient id="nib" x1="650" y1="582" x2="796" y2="758" gradientUnits="userSpaceOnUse">
      <stop offset="0" stop-color="#f6b85a"/>
      <stop offset="1" stop-color="#d87c37"/>
    </linearGradient>
    <filter id="shadow" x="-20%" y="-20%" width="140%" height="150%">
      <feDropShadow dx="0" dy="32" stdDeviation="34" flood-color="#000000" flood-opacity="0.38"/>
    </filter>
    <filter id="soft" x="-20%" y="-20%" width="140%" height="140%">
      <feDropShadow dx="0" dy="12" stdDeviation="16" flood-color="#071015" flood-opacity="0.24"/>
    </filter>
  </defs>

  <rect x="80" y="80" width="864" height="864" rx="206" fill="url(#base)"/>
  <rect x="80" y="80" width="864" height="864" rx="206" fill="url(#glow)"/>
  <path d="M188 742c145 85 428 113 646-27v69c-99 83-234 128-389 128-97 0-189-18-257-51z" fill="#0a1117" opacity="0.28"/>

  <g filter="url(#shadow)">
    <path d="M318 204h291l113 113v463c0 31-25 56-56 56H318c-31 0-56-25-56-56V260c0-31 25-56 56-56z" fill="url(#paper)"/>
    <path d="M608 204v88c0 31 25 56 56 56h58z" fill="url(#fold)"/>
    <path d="M608 204v88c0 31 25 56 56 56h58" fill="none" stroke="#9db1ad" stroke-width="8" stroke-linecap="round" stroke-linejoin="round" opacity="0.65"/>

    <rect x="333" y="366" width="206" height="24" rx="12" fill="#1aa899"/>
    <rect x="333" y="432" width="284" height="24" rx="12" fill="#26343f"/>
    <rect x="333" y="498" width="186" height="24" rx="12" fill="#d9863f"/>
    <rect x="333" y="564" width="260" height="24" rx="12" fill="#1aa899"/>
    <rect x="333" y="630" width="148" height="24" rx="12" fill="#26343f"/>
  </g>

  <g filter="url(#soft)">
    <path d="M650 592l82-82c10-10 27-10 37 0l49 49c10 10 10 27 0 37l-82 82z" fill="#25313a"/>
    <path d="M626 704l24-112 86 86z" fill="url(#nib)"/>
    <path d="M626 704l45-17-28-28z" fill="#fff2cf"/>
    <circle cx="730" cy="596" r="12" fill="#fff2cf" opacity="0.85"/>
  </g>

  <path d="M273 260c0-31 25-56 56-56h108" fill="none" stroke="#ffffff" stroke-width="10" stroke-linecap="round" opacity="0.25"/>
  <path d="M169 253c18-46 52-84 95-110" fill="none" stroke="#ffffff" stroke-width="12" stroke-linecap="round" opacity="0.16"/>
</svg>
